<svg xmlns="http://www.w3.org/2000/svg" width="24" height="24" fill="none"
                                            viewBox="0 0 24 24" class="icon-md" style="color: rgb(226, 197, 65);">
                                            <path stroke="currentColor" stroke-linecap="round" stroke-linejoin="round"
                                                stroke-width="2"
                                                d="m9.65 13.026-3.287 1.19A2 2 0 0 1 3.8 13.027l-.342-.934.597-1.275L1.75 7.419l2.348-.85 2.564 1.484a2 2 0 0 0 1.689.15l8.512-3.083c.291-.106.603-.142.912-.107l2.833.325a1.842 1.842 0 0 1 .422 3.565l-5.276 1.911m.598-1.275L13 14.5l-2.817 1.02-.343-3.622">
                                            </path>
                                            <path stroke="currentColor" stroke-linecap="round" stroke-width="2"
                                                d="M3 19h18">
                                            </path>
                                        </svg>